<?xml version="1.0" encoding="UTF-8"?>
<svg id="_レイヤー_1" data-name="レイヤー_1" xmlns="http://www.w3.org/2000/svg" version="1.1" viewBox="0 0 841.89 595.28">
  <!-- Generator: Adobe Illustrator 29.8.1, SVG Export Plug-In . SVG Version: 2.1.1 Build 2)  -->
  <defs>
    <style>
      .st0 {
        stroke: #231815;
        stroke-miterlimit: 10;
        stroke-width: 2px;
      }
    </style>
  </defs>
  <path class="st0" d="M248.77,289.32c0,15.05-12.17,27.15-27.22,27.15s-27.15-12.1-27.15-27.15,12.1-27.22,27.15-27.22,27.22,12.17,27.22,27.22ZM197.06,289.32c0,13.68,10.8,24.55,24.48,24.55s24.55-10.87,24.55-24.55-10.94-24.63-24.55-24.63-24.48,11.02-24.48,24.63ZM230.33,282.41c-1.37-4.32-4.03-6.77-7.85-6.77-5.33,0-9.65,4.9-9.65,13.54s4.39,13.61,9.65,13.61c3.89,0,6.84-2.02,8.14-6.99l3.74,1.22c-2.02,6.41-6.19,9.22-11.95,9.22-7.85,0-13.68-6.34-13.68-16.99s5.91-17.07,13.68-17.07c5.83,0,10.08,3.46,11.74,9.22l-3.82,1.01Z"/>
  <path d="M299.23,263.04c11.95,0,17.86,5.18,17.86,14.33s-6.41,14.69-18.29,14.69h-11.74v23.47h-4.75v-52.49h16.92ZM287.06,288.17h11.45c9.36,0,13.61-4.03,13.61-10.73s-3.82-10.44-13.18-10.44h-11.88v21.17Z"/>
  <path d="M362.23,267.14h-27.58v18.36h20.81v4.1h-20.81v21.82h28.08v4.1h-32.83v-52.49h32.33v4.1Z"/>
  <path d="M391.68,263.04c12.17,0,17.71,4.9,17.71,13.47,0,6.48-3.89,11.45-11.52,13.18l12.82,25.85h-5.26l-12.03-25.13c-.86.07-1.8.07-2.81.07h-11.45v25.06h-4.68v-52.49h17.21ZM379.15,286.58h11.74c9.5,0,13.54-3.74,13.54-10.01s-3.6-9.58-13.1-9.58h-12.17v19.59Z"/>
  <path d="M454.18,278.09c-2.02-7.92-6.91-11.88-13.75-11.88-9.43,0-16.56,8.21-16.56,23.11s7.2,23.11,16.56,23.11c7.2,0,12.17-3.53,14.26-12.1l4.61,1.73c-3.17,10.23-9.79,14.47-18.94,14.47-12.1,0-21.53-9.94-21.53-27.15s9.51-27.29,21.53-27.29c9.36,0,15.99,5.47,18.51,14.55l-4.68,1.44Z"/>
  <path d="M508.39,315.53h-4.75v-25.63h-27.87v25.63h-4.75v-52.49h4.75v22.75h27.87v-22.75h4.75v52.49Z"/>
  <path d="M542.23,276.65c1.8-9,7.49-13.61,15.27-13.61s13.97,4.9,13.97,13.25c0,5.69-2.16,9.65-10.87,17.5-8.06,7.06-11.67,12.17-14.26,17.79h25.2v3.96h-29.74v-3.53c2.95-7.06,7.56-13.54,15.55-20.88,7.56-7.06,9.36-10.15,9.36-14.83,0-5.83-3.82-9.29-9.29-9.29s-9.43,3.53-10.66,10.8l-4.54-1.15Z"/>
  <path d="M612.5,289.46c0,18.72-5.69,27-15.48,27s-15.34-8.14-15.34-26.86,5.83-26.57,15.48-26.57,15.34,7.7,15.34,26.43ZM586.51,289.46c0,16.49,3.38,23.04,10.51,23.04s10.66-6.55,10.66-22.97-3.46-22.54-10.51-22.54-10.66,6.05-10.66,22.47Z"/>
  <path d="M622.29,276.65c1.8-9,7.49-13.61,15.27-13.61s13.97,4.9,13.97,13.25c0,5.69-2.16,9.65-10.87,17.5-8.06,7.06-11.67,12.17-14.26,17.79h25.2v3.96h-29.74v-3.53c2.95-7.06,7.56-13.54,15.55-20.88,7.56-7.06,9.36-10.15,9.36-14.83,0-5.83-3.82-9.29-9.29-9.29s-9.43,3.53-10.66,10.8l-4.54-1.15Z"/>
  <path d="M687.02,271.89c-1.58-3.53-4.32-4.97-7.56-4.97-8.14,0-12.24,7.78-12.53,23.55,3.31-5.33,7.56-7.85,12.24-7.85,7.7,0,13.25,6.34,13.25,16.2,0,11.02-6.19,17.64-14.47,17.64-8.93,0-15.48-7.63-15.48-24.12,0-20.38,6.62-29.31,17.14-29.31,5.4,0,9.5,2.66,11.74,6.77l-4.32,2.09ZM677.95,312.58c5.98,0,9.79-4.82,9.79-13.68,0-7.7-3.6-12.31-9.29-12.31-4.18,0-8.14,2.52-11.38,8.42.07,12.1,4.68,17.57,10.87,17.57Z"/>
</svg>